<svg xmlns="http://www.w3.org/2000/svg" width="75" height="75" viewBox="0 0 75 75" fill="none"><circle cx="37.5" cy="37.5" r="37.5" fill="white"></circle><path d="M37.6681 40.4779C36.443 40.3137 35.294 39.79 34.3664 38.9728C33.4389 38.1556 32.7746 37.0818 32.4573 35.8871C32.1401 34.6923 32.1843 33.4303 32.5843 32.2607C32.9843 31.0911 33.7222 30.0664 34.7046 29.3161C35.687 28.5658 36.8698 28.1237 38.1035 28.0457C39.3372 27.9676 40.5663 28.2572 41.6354 28.8777C42.7045 29.4982 43.5656 30.4218 44.1098 31.5317C44.654 32.6416 44.8569 33.8879 44.6927 35.1131C44.4707 36.7552 43.6065 38.2421 42.2896 39.2479C40.9727 40.2536 39.3107 40.6959 37.6681 40.4779ZM38.996 30.5664C38.2609 30.4679 37.5131 30.5896 36.8471 30.9162C36.1812 31.2427 35.627 31.7593 35.2547 32.4008C34.8824 33.0423 34.7087 33.7797 34.7555 34.5199C34.8024 35.2601 35.0676 35.9698 35.5178 36.5593C35.9679 37.1487 36.5828 37.5914 37.2846 37.8314C37.9863 38.0714 38.7435 38.098 39.4604 37.9076C40.1772 37.7173 40.8215 37.3187 41.3118 36.7622C41.8021 36.2057 42.1164 35.5163 42.2148 34.7811C42.3459 33.7956 42.0806 32.7982 41.4771 32.0081C40.8736 31.2179 39.9813 30.6994 38.996 30.5664Z" fill="#FF6B31"></path><path d="M37.999 55.4999L27.4547 43.0631C27.3082 42.8763 27.1632 42.6884 27.0198 42.4993C25.2186 40.1264 24.2457 37.2282 24.2502 34.2491C24.2504 30.6024 25.6993 27.1051 28.278 24.5267C30.8568 21.9482 34.3543 20.4997 38.001 20.4999C41.6477 20.5001 45.145 21.949 47.7235 24.5277C50.302 27.1065 51.7504 30.604 51.7502 34.2507C51.7544 37.2284 50.7816 40.1252 48.981 42.4968L48.9798 42.5005C48.9798 42.5005 48.6047 42.993 48.5485 43.0593L37.999 55.4999ZM29.0161 40.9932C29.0161 40.9932 29.3073 41.3782 29.3736 41.4607L37.9992 51.6349L46.6373 41.4479C46.6923 41.3791 46.9861 40.9904 46.9861 40.9904C48.4576 39.0519 49.253 36.6843 49.2502 34.2505C49.2504 31.2669 48.0653 28.4053 45.9556 26.2954C43.846 24.1855 40.9845 23.0001 38.0009 22.9999C35.0172 22.9997 32.1556 24.1849 30.0457 26.2945C27.9358 28.4042 26.7504 31.2656 26.7502 34.2493C26.7475 36.6846 27.5434 39.0536 29.0161 40.9932Z" fill="#FF6B31"></path></svg>