<svg xmlns="http://www.w3.org/2000/svg" width="64" height="64"><path d="M0 0 C1.98 0 3.96 0 6 0 C6 1.32 6 2.64 6 4 C7.299375 4.185625 8.59875 4.37125 9.9375 4.5625 C11.03384766 4.71912109 11.03384766 4.71912109 12.15234375 4.87890625 C13.06693359 4.93884766 13.06693359 4.93884766 14 5 C14.33 4.67 14.66 4.34 15 4 C18.72028949 3.32358373 20.63800487 4.27005774 23.625 6.3125 C28.39339095 9.52796669 33.44221293 10.743368 39 12 C39.02715383 13.74991334 39.04646551 15.49994945 39.0625 17.25 C39.07410156 18.22453125 39.08570313 19.1990625 39.09765625 20.203125 C39 23 39 23 38 27 C35.03 27 32.06 27 29 27 C29.66 24.36 30.32 21.72 31 19 C30.40832031 18.80664062 29.81664062 18.61328125 29.20703125 18.4140625 C28.41683594 18.15367188 27.62664063 17.89328125 26.8125 17.625 C25.57886719 17.22087891 25.57886719 17.22087891 24.3203125 16.80859375 C22 16 22 16 19.1875 14.6875 C16.99692995 13.78102364 16.99692995 13.78102364 14.75 14.625 C12.62603916 16.29382638 12.35079698 17.36902268 12 20 C8.90645403 20.99435406 7.09720845 20.87840996 4 20 C7.15679392 29.54311893 10.4374634 37.29164226 19 43 C19.33 41.02 19.66 39.04 20 37 C18.02 36.67 16.04 36.34 14 36 C14 34.02 14 32.04 14 30 C12.02 30 10.04 30 8 30 C8 27.69 8 25.38 8 23 C9.98 23 11.96 23 14 23 C14 21.02 14 19.04 14 17 C16.31 17 18.62 17 21 17 C21 18.98 21 20.96 21 23 C22.98 23 24.96 23 27 23 C27 24.98 27 26.96 27 29 C27.66 28.67 28.32 28.34 29 28 C34.58393133 27.4900901 39.44052088 27.26129937 44.5625 29.6875 C47.8320199 32.78935221 49.75850523 35.38350798 50.43359375 39.90234375 C50.44150672 46.05071801 50.4465054 50.31314296 46 55 C40.56292462 58.88629443 35.47755921 58.79872343 29 58 C24.9272038 55.99932818 22.44700178 53.80644722 20 50 C19.41992188 50.20625 18.83984375 50.4125 18.2421875 50.625 C14.69001243 51.219092 12.89787459 49.52147486 10.0234375 47.58203125 C1.91061426 41.23899378 -1.72756843 32.83523996 -4.2890625 23.1015625 C-4.88960224 20.81491435 -4.88960224 20.81491435 -7 19 C-6.6875 17.125 -6.6875 17.125 -6 15 C-5.814375 14.2575 -5.62875 13.515 -5.4375 12.75 C-5.293125 12.1725 -5.14875 11.595 -5 11 C-5.99 10.67 -6.98 10.34 -8 10 C-8 8.35 -8 6.7 -8 5 C-5.23735711 4.40267181 -2.83967231 4 0 4 C0 2.68 0 1.36 0 0 Z M0 8 C1.32 8.33 2.64 8.66 4 9 C4 9.99 4 10.98 4 12 C4.99 12 5.98 12 7 12 C7 11.34 7 10.68 7 10 C6.34 10 5.68 10 5 10 C5 9.34 5 8.68 5 8 C3.35 8 1.7 8 0 8 Z M0 13 C0.66 14.32 1.32 15.64 2 17 C2.66 17 3.32 17 4 17 C4 15.68 4 14.36 4 13 C2.68 13 1.36 13 0 13 Z M21 30 C21 31.65 21 33.3 21 35 C22.65 33.35 24.3 31.7 26 30 C24.35 30 22.7 30 21 30 Z M37 31 C36.67 35.29 36.34 39.58 36 44 C37.98 44 39.96 44 42 44 C42.66 46.31 43.32 48.62 44 51 C46.09933151 49.29603331 46.92588781 48.39392968 47.43359375 45.6953125 C47.44682659 40.07337007 47.44682659 40.07337007 45.1875 35 C41.63653059 31.71204132 41.63653059 31.71204132 37 31 Z M24.875 34.875 C22.26322686 39.22795523 22.01554633 43.03705175 23 48 C24.46219342 50.27677176 25.79701375 51.34776031 28 53 C27.98839844 52.05898438 27.97679687 51.11796875 27.96484375 50.1484375 C27.95130859 48.28058594 27.95130859 48.28058594 27.9375 46.375 C27.92589844 45.14523438 27.91429687 43.91546875 27.90234375 42.6484375 C27.99136076 39.32276209 28.36313913 36.25952412 29 33 C26.77762162 32.77945945 26.77762162 32.77945945 24.875 34.875 Z M30 54 C30 54.33 30 54.66 30 55 C33.3 55 36.6 55 40 55 C40 54.67 40 54.34 40 54 C36.7 54 33.4 54 30 54 Z " fill="#FC7C13" transform="translate(11,3)"></path></svg>